<?xml version="1.0" standalone="no"?>
<!DOCTYPE svg PUBLIC "-//W3C//DTD SVG 20010904//EN"
 "http://www.w3.org/TR/2001/REC-SVG-20010904/DTD/svg10.dtd">
<svg version="1.0" xmlns="http://www.w3.org/2000/svg"
 width="1258.000000pt" height="1258.000000pt" viewBox="0 0 1258.000000 1258.000000"
 preserveAspectRatio="xMidYMid meet">
<metadata>
Created by potrace 1.11, written by Peter Selinger 2001-2013
</metadata>
<g transform="translate(0.000000,1258.000000) scale(0.100000,-0.100000)"
fill="#000000" stroke="none">
<path d="M2829 11362 c-49 -53 -110 -127 -123 -149 -5 -9 -4 -25 3 -39 9 -21
8 -24 -9 -24 -28 0 -85 -54 -121 -114 -17 -28 -49 -63 -70 -78 -21 -15 -59
-54 -84 -86 -25 -33 -58 -65 -73 -73 -37 -19 -40 -25 -32 -70 4 -23 3 -39 -2
-39 -6 0 -23 -9 -39 -21 -20 -14 -29 -29 -29 -49 0 -28 -4 -31 -97 -90 -17
-11 -23 -22 -20 -39 4 -17 -4 -31 -29 -53 -18 -16 -32 -34 -31 -39 1 -4 -21
-32 -50 -61 -28 -29 -54 -64 -57 -78 -9 -49 -68 -146 -116 -192 -27 -25 -62
-70 -77 -99 -36 -67 -43 -79 -75 -125 -15 -22 -30 -50 -33 -64 -4 -15 -22 -36
-45 -50 -23 -15 -50 -44 -65 -73 -15 -26 -60 -92 -100 -147 -86 -115 -105
-149 -105 -188 0 -18 -11 -39 -29 -58 -16 -16 -49 -63 -74 -104 -25 -41 -64
-93 -86 -115 -23 -21 -41 -44 -41 -50 0 -6 -20 -37 -44 -70 -25 -32 -49 -77
-55 -99 -6 -25 -34 -70 -72 -116 -111 -135 -179 -247 -179 -294 0 -16 -19 -43
-60 -84 -37 -36 -60 -67 -60 -81 0 -12 -11 -43 -24 -69 -16 -31 -22 -57 -19
-76 4 -21 0 -33 -19 -50 -35 -31 -61 -73 -93 -151 -16 -38 -49 -109 -72 -156
-57 -115 -62 -143 -32 -168 l24 -20 -22 6 c-31 7 -69 -19 -92 -65 -19 -38 -50
-122 -56 -155 -8 -38 -18 -61 -45 -104 -15 -24 -31 -60 -35 -80 -10 -53 -32
-117 -67 -193 -16 -35 -40 -112 -54 -170 -13 -58 -29 -122 -34 -142 -8 -26 -7
-57 0 -100 7 -40 8 -72 2 -88 -11 -30 -7 -61 13 -101 9 -16 18 -50 20 -75 5
-58 62 -163 103 -189 29 -18 31 -24 26 -57 -7 -44 2 -63 69 -146 38 -47 60
-65 89 -72 29 -8 39 -17 44 -38 11 -52 15 -62 24 -62 14 0 50 -41 70 -81 11
-21 38 -47 62 -62 42 -25 165 -145 204 -200 16 -23 34 -31 101 -46 45 -10 88
-23 95 -29 8 -6 43 -25 78 -43 36 -17 94 -53 130 -79 49 -36 77 -50 114 -54
27 -4 81 -22 120 -41 39 -19 87 -36 106 -38 43 -6 187 -45 209 -57 9 -4 46
-13 81 -20 36 -6 86 -20 112 -30 26 -11 66 -20 90 -20 24 0 59 -5 78 -10 53
-16 125 -25 280 -36 52 -3 97 -8 99 -10 2 -1 21 4 42 13 37 14 43 14 87 -2 39
-16 77 -18 244 -17 186 0 313 8 331 19 13 8 37 -18 37 -39 0 -11 -11 -34 -25
-52 -30 -40 -24 -71 19 -93 22 -11 26 -18 16 -21 -34 -11 -50 -35 -50 -78 0
-24 -5 -54 -11 -68 -9 -19 -8 -33 4 -64 9 -22 14 -42 11 -45 -3 -3 -8 -38 -11
-79 -3 -46 -11 -80 -21 -91 -15 -16 -15 -22 0 -62 16 -41 15 -44 -3 -60 -28
-26 -32 -50 -14 -85 26 -50 34 -148 17 -194 -14 -35 -13 -41 3 -68 21 -37 30
-205 14 -256 -9 -28 -8 -36 7 -53 18 -20 71 -47 107 -54 9 -2 21 -7 27 -10 19
-12 162 -8 170 5 10 16 -6 65 -37 110 -28 41 -28 54 -7 146 17 70 17 72 -4
105 -18 30 -19 36 -6 53 8 11 14 31 14 44 0 14 9 40 21 59 17 27 20 44 15 86
-3 29 -6 93 -6 144 l0 91 -30 7 -31 7 26 25 c28 29 29 34 14 78 -10 28 -8 39
16 91 41 89 46 111 28 129 -8 8 -19 13 -24 10 -5 -4 -39 -8 -76 -10 -59 -4
-63 -3 -26 5 64 13 81 27 105 78 12 26 27 54 35 63 11 13 11 22 -1 57 -15 40
-14 42 5 42 11 0 30 5 42 12 12 7 40 13 62 14 22 1 60 8 85 16 25 9 70 16 101
17 30 1 66 4 80 7 13 3 92 8 174 11 136 5 157 8 229 35 82 32 91 34 216 42 84
6 179 24 196 37 6 5 47 14 90 19 43 6 105 15 137 21 31 7 76 9 98 6 23 -3 53
-1 68 5 14 5 55 16 91 23 36 7 92 20 125 29 68 19 86 22 205 31 47 4 100 14
118 22 31 15 113 20 131 8 5 -2 27 2 49 9 40 14 41 14 50 -12 4 -15 5 -42 1
-61 -10 -46 -5 -144 10 -206 16 -65 21 -128 25 -307 l3 -147 -41 -6 c-46 -7
-68 -4 -144 23 -40 15 -72 18 -134 15 -58 -3 -92 0 -120 12 -28 11 -73 15
-171 14 -73 0 -143 4 -157 9 -25 9 -37 9 -195 -2 -150 -11 -177 -17 -252 -52
-39 -19 -86 -37 -105 -41 -18 -3 -55 -16 -83 -28 -27 -13 -64 -25 -81 -29 -20
-4 -64 -39 -126 -99 -100 -97 -138 -147 -138 -185 0 -20 -3 -21 -20 -12 -18
10 -23 6 -40 -32 -25 -56 -25 -83 2 -102 23 -17 48 -6 48 20 0 12 4 12 23 0
29 -19 116 -39 143 -32 22 6 101 80 146 138 33 43 79 66 149 74 30 3 74 15 99
26 68 30 239 42 336 24 33 -6 45 -4 59 11 13 12 20 14 22 6 6 -16 43 -21 193
-27 69 -3 136 -7 150 -10 14 -4 50 -9 80 -12 30 -3 91 -12 135 -21 44 -9 90
-15 101 -15 15 1 24 -6 28 -22 4 -17 17 -27 52 -36 27 -8 61 -27 80 -46 l33
-33 -21 -49 -20 -48 22 -49 22 -48 -21 -71 c-12 -39 -21 -82 -21 -96 0 -14 -7
-43 -14 -65 -16 -45 -30 -203 -28 -309 1 -54 -3 -77 -18 -102 -13 -20 -20 -50
-20 -85 -1 -30 -7 -72 -15 -94 -11 -29 -14 -89 -14 -225 1 -144 -3 -196 -15
-235 -19 -61 -24 -88 -25 -141 -1 -33 -9 -50 -46 -93 -25 -29 -45 -62 -45 -74
0 -12 -18 -54 -40 -94 -43 -77 -120 -151 -185 -179 -21 -8 -50 -25 -66 -36
-28 -21 -28 -21 -76 -2 -26 10 -70 21 -98 24 -48 5 -52 8 -98 70 -92 123 -98
126 -182 94 -71 -27 -76 -28 -69 -11 3 9 13 19 22 22 24 7 46 45 34 57 -6 6
-38 10 -71 9 -73 -1 -101 19 -101 73 0 38 -13 55 -83 110 -73 58 -159 62 -194
10 -14 -22 -14 -27 -2 -35 8 -5 28 -8 44 -8 17 1 37 1 46 0 21 -1 92 -58 82
-64 -12 -7 -70 -3 -79 6 -21 20 -41 -1 -50 -52 -7 -38 40 -69 53 -35 4 11 10
7 26 -18 17 -28 42 -60 117 -150 8 -10 24 -18 36 -18 30 0 52 -27 30 -36 -21
-8 -20 -20 4 -44 15 -15 33 -20 74 -20 30 0 58 -5 61 -10 3 -5 -3 -10 -13 -10
-24 0 -36 -25 -19 -38 7 -6 29 -17 50 -25 20 -9 37 -23 37 -31 0 -31 39 -54
115 -71 51 -12 78 -23 82 -34 15 -42 56 -49 66 -11 5 20 25 18 142 -18 104
-32 195 -11 266 63 19 19 44 35 56 35 12 0 25 5 29 11 3 6 19 9 35 7 18 -3 28
0 27 6 -2 6 1 12 6 13 18 3 29 34 16 46 -8 9 -14 8 -21 -6 -13 -22 -29 -13
-29 16 0 19 5 22 43 22 51 0 107 38 132 90 8 19 25 39 35 45 11 6 20 20 20 30
0 11 20 68 43 127 48 117 54 144 63 249 3 46 12 78 25 97 11 15 21 40 21 55 1
36 -11 74 -22 67 -13 -8 -62 14 -55 25 3 5 17 10 31 10 13 0 24 4 24 9 0 5 14
14 30 20 33 11 34 15 31 111 -2 53 1 70 18 92 22 27 23 49 4 82 -8 15 -7 30 3
59 18 51 18 138 0 163 -13 17 -12 22 14 46 35 32 48 74 29 94 -14 13 -64 21
-143 23 -61 1 -33 15 37 18 99 4 127 12 136 36 5 12 5 29 1 37 -4 8 -11 33
-14 55 -10 59 -8 313 2 367 10 50 9 90 -3 126 -6 22 -4 23 43 21 52 -3 66 -8
175 -72 65 -37 117 -51 237 -62 79 -7 116 -18 201 -61 37 -18 89 -39 115 -45
27 -7 69 -25 94 -40 32 -19 55 -26 80 -24 25 2 49 -5 85 -27 44 -27 53 -29 81
-19 27 10 39 8 80 -10 67 -29 185 -37 218 -15 18 11 48 16 105 16 44 0 91 4
106 10 21 8 24 14 19 37 l-6 28 16 -22 c22 -29 48 -29 82 0 l27 23 -17 51
c-16 48 -19 52 -75 72 -32 11 -96 28 -143 36 -93 16 -286 69 -388 107 -36 14
-87 26 -115 27 -64 4 -108 22 -156 66 -22 19 -44 35 -49 35 -6 0 -10 9 -10 21
0 17 -4 19 -22 13 -41 -13 -72 -11 -108 8 -26 13 -50 17 -88 13 -48 -4 -54 -2
-64 20 -6 14 -30 36 -52 49 -40 23 -244 92 -340 115 -27 7 -61 20 -75 30 -18
13 -33 16 -48 10 -21 -8 -21 -7 -22 159 -1 206 -14 428 -26 440 -2 2 1 17 6
34 6 22 4 39 -6 59 -12 22 -13 39 -5 76 9 46 18 136 20 198 l1 30 14 -32 c17
-40 28 -41 72 -7 27 20 32 30 27 47 -4 12 -12 25 -18 30 -7 4 -3 9 11 13 12 3
29 16 37 29 11 16 22 22 36 18 14 -4 20 0 20 10 0 21 -19 32 -52 28 -15 -1
-36 3 -47 9 -11 6 -40 13 -63 16 -24 3 -49 7 -55 9 -7 2 -22 -5 -32 -17 l-20
-21 -7 27 c-3 14 -4 36 0 49 3 14 -1 33 -10 45 -8 12 -19 48 -24 79 -6 32 -19
70 -29 84 -16 21 -20 43 -20 97 0 56 -6 86 -31 149 -17 43 -34 96 -36 118 -3
22 -21 78 -40 125 -20 47 -44 119 -55 160 -14 52 -33 92 -62 130 -29 38 -42
66 -44 92 -2 44 -24 80 -58 98 -14 7 -25 17 -25 22 0 13 -83 140 -116 178
-116 132 -281 278 -376 334 -25 15 -53 37 -61 50 -10 15 -34 27 -74 36 -32 8
-77 21 -99 31 -23 10 -66 20 -95 24 -30 3 -65 8 -79 10 -96 17 -111 16 -146
-6 -31 -18 -39 -20 -59 -9 -26 14 -46 11 -153 -27 -52 -19 -77 -33 -84 -49
-13 -27 -36 -38 -52 -25 -17 14 -38 -3 -34 -27 2 -14 -8 -30 -33 -49 -106 -83
-169 -138 -169 -149 0 -19 -36 -81 -74 -128 -36 -44 -138 -197 -167 -249 -17
-31 -31 -60 -64 -129 -25 -54 -88 -151 -116 -181 -31 -32 -42 -73 -27 -101 8
-14 7 -21 -3 -27 -44 -27 -44 -27 -32 -60 11 -30 10 -37 -20 -88 -47 -81 -64
-124 -61 -146 2 -11 -4 -30 -12 -43 -17 -27 -54 -136 -54 -162 0 -22 28 -46
64 -54 15 -4 26 -9 23 -12 -3 -3 -24 0 -47 6 -38 10 -44 9 -66 -11 -31 -29
-50 -85 -35 -103 8 -10 8 -16 -3 -25 -7 -6 -16 -28 -19 -49 -11 -67 -34 -137
-45 -137 -16 0 -19 -7 -26 -58 -8 -61 -42 -134 -64 -139 -17 -5 -83 -8 -271
-13 -52 -1 -113 2 -135 8 -23 5 -72 10 -111 12 -38 1 -96 6 -128 10 -47 6 -61
4 -76 -9 -17 -15 -19 -15 -25 -1 -8 23 -41 32 -146 39 -52 3 -106 8 -120 10
-55 9 -209 20 -270 18 -58 -1 -71 2 -125 34 -38 23 -81 39 -120 45 -87 14
-114 24 -280 104 -206 100 -274 125 -334 125 -36 0 -51 4 -51 13 0 21 -35 49
-71 56 -18 4 -34 12 -37 19 -2 7 2 10 12 6 10 -4 16 -1 16 9 0 20 -27 40 -45
33 -10 -3 -60 39 -151 127 -76 73 -142 138 -148 146 -6 8 -28 31 -49 52 -21
20 -52 58 -68 84 -16 25 -41 58 -54 73 -34 36 -61 112 -74 208 -25 178 -19
238 33 313 14 20 31 64 37 96 6 33 22 80 35 105 13 24 24 54 24 65 0 12 5 26
11 32 12 12 5 44 -8 42 -19 -3 -33 2 -33 11 0 6 11 10 24 10 32 0 38 9 86 130
22 58 52 128 64 155 49 105 52 121 31 162 -11 21 -21 41 -23 46 -2 4 3 7 11 7
22 0 77 67 103 127 13 29 40 76 59 104 19 28 35 60 35 70 0 19 48 101 63 107
4 2 7 14 7 27 0 33 10 55 25 55 25 0 82 96 124 208 9 23 33 62 54 85 58 62
247 317 247 332 0 7 8 23 19 36 32 42 34 64 7 96 l-25 30 27 -2 c43 -3 81 26
118 90 20 33 40 67 45 75 5 8 21 38 35 67 13 28 31 56 39 63 8 6 17 33 21 58
10 66 20 89 43 97 10 3 24 19 30 35 7 22 16 30 34 30 28 0 37 21 37 92 0 43 2
46 25 44 13 -2 33 3 44 10 37 26 81 122 108 234 7 29 14 36 38 38 41 5 51 16
86 86 16 33 39 66 49 73 11 8 27 27 35 43 8 16 40 53 70 84 60 59 85 106 85
156 0 21 8 39 25 53 99 84 175 169 185 205 7 26 33 65 78 113 37 41 77 84 88
97 12 13 27 41 33 63 6 21 28 55 47 76 75 79 124 150 124 179 0 11 5 14 16 10
13 -5 15 -2 11 13 -6 25 15 44 83 74 65 29 87 52 96 97 l7 33 -33 -7 c-19 -3
-41 -13 -50 -21 -21 -19 -30 -19 -30 0 0 8 -19 33 -42 55 -38 37 -41 42 -25
51 21 12 22 23 1 43 -30 30 -68 20 -115 -32z m1861 -4256 c0 4 6 2 13 -3 24
-20 138 -53 181 -53 48 0 87 -22 157 -90 24 -23 73 -61 109 -85 36 -23 72 -51
81 -62 9 -11 26 -27 38 -35 13 -9 27 -35 34 -64 7 -30 20 -53 32 -59 40 -21
103 -91 124 -135 11 -25 45 -78 75 -119 53 -70 56 -77 56 -133 0 -46 5 -67 24
-94 20 -30 23 -44 19 -94 -3 -47 1 -70 21 -118 14 -33 35 -100 46 -149 20 -90
51 -204 65 -235 6 -14 -2 -22 -41 -38 -40 -17 -59 -20 -116 -14 -55 5 -68 10
-68 24 0 9 -3 20 -6 23 -11 11 -46 -14 -40 -28 10 -26 -71 -49 -179 -50 -135
-2 -233 -12 -330 -35 -72 -16 -105 -20 -248 -24 -119 -4 -131 -6 -169 -31 -25
-17 -63 -30 -103 -36 -34 -5 -73 -12 -86 -17 -13 -5 -51 -10 -84 -11 -38 -2
-80 -12 -116 -28 -48 -21 -66 -24 -120 -19 -74 7 -274 8 -304 2 -11 -2 -54 -7
-95 -11 -41 -4 -83 -9 -92 -10 -20 -4 -83 35 -80 50 1 6 18 12 39 15 33 4 38
8 35 29 -1 13 5 34 13 47 8 13 15 30 15 37 0 8 10 27 23 43 16 21 22 43 23 81
0 42 7 62 31 95 37 53 42 67 33 94 -7 16 -2 23 21 33 21 9 29 20 29 38 0 14 9
40 20 59 13 20 17 35 10 39 -7 4 -7 13 1 27 6 12 13 46 15 76 4 54 21 86 76
146 10 11 17 31 17 45 -1 14 10 46 24 71 15 25 27 52 27 61 0 8 16 49 36 89
36 73 42 103 29 161 -4 17 -2 29 4 29 11 0 17 -16 27 -73 3 -20 10 -40 15 -43
10 -6 22 18 23 50 1 12 10 31 21 42 11 12 27 30 36 40 9 10 28 29 42 41 15 13
27 33 27 45 0 12 19 42 44 67 101 106 128 136 138 154 5 11 26 40 45 66 34 44
38 47 127 67 59 14 99 18 114 13 12 -5 22 -6 22 -3z m-1095 -1466 c3 -5 -3
-10 -15 -10 -12 0 -18 5 -15 10 3 6 10 10 15 10 5 0 12 -4 15 -10z m887 -524
c34 -6 96 -45 72 -46 -28 -1 -104 34 -135 61 -32 28 -32 29 -4 11 17 -10 47
-22 67 -26z m3308 -1314 c0 -10 -7 -27 -15 -38 -14 -18 -14 -17 -15 12 0 17 3
34 7 37 12 13 23 7 23 -11z m-1957 -1733 c-19 -20 -37 -30 -47 -26 -33 13 11
55 59 56 17 1 15 -3 -12 -30z m-733 -274 c-14 -17 -30 -20 -30 -6 0 5 8 12 18
14 9 3 19 5 21 6 2 0 -2 -6 -9 -14z"/>
<path d="M8878 10619 c-19 -11 -25 -49 -7 -49 15 0 53 21 61 34 16 24 -21 35
-54 15z"/>
<path d="M9148 10625 c-2 -3 -33 -7 -69 -10 -79 -7 -189 -56 -251 -113 -24
-22 -57 -46 -73 -55 -17 -8 -37 -26 -44 -40 -10 -19 -25 -27 -56 -32 -59 -8
-102 -39 -155 -112 -25 -33 -62 -71 -82 -84 -21 -13 -40 -31 -43 -39 -3 -8
-29 -40 -58 -71 -53 -56 -101 -135 -91 -151 3 -4 14 -8 25 -8 10 0 19 -4 19
-10 0 -15 -22 -12 -47 5 -24 17 -23 17 -37 -46 -3 -14 -17 -38 -32 -55 -39
-44 -64 -87 -64 -111 0 -12 -4 -25 -10 -28 -5 -3 -10 -16 -10 -27 0 -11 -9
-35 -20 -53 -11 -19 -20 -37 -18 -42 3 -11 -62 -77 -84 -86 -10 -3 -18 -17
-19 -29 0 -19 -3 -17 -16 12 -93 212 -163 351 -210 421 -28 41 -63 94 -80 119
-17 25 -36 63 -43 85 -17 55 -34 84 -70 125 -17 19 -44 58 -60 86 -34 59 -45
69 -81 77 -17 5 -31 18 -40 39 -27 67 -69 83 -114 43 -19 -16 -37 -24 -50 -20
-11 3 -30 8 -42 11 -25 7 -35 -10 -48 -83 -8 -50 6 -75 104 -179 35 -38 73
-87 85 -110 11 -24 41 -76 65 -116 35 -58 44 -82 43 -115 -1 -41 0 -43 27 -43
33 0 42 -16 71 -133 28 -113 38 -134 86 -197 23 -30 48 -72 55 -94 8 -21 24
-46 36 -56 16 -12 23 -28 23 -52 0 -45 35 -146 59 -173 25 -26 33 -79 20 -131
-9 -35 -7 -46 11 -82 l21 -41 -21 -29 c-17 -23 -19 -33 -11 -55 6 -15 15 -27
21 -27 19 0 10 -15 -19 -31 -24 -14 -29 -24 -34 -73 -3 -32 -11 -64 -18 -72
-9 -11 -8 -19 5 -39 22 -34 21 -40 -16 -50 -31 -9 -33 -13 -35 -60 -1 -27 -4
-61 -6 -75 -2 -14 3 -35 11 -48 12 -18 12 -25 2 -37 -18 -21 -15 -68 6 -100
10 -16 13 -30 8 -33 -5 -4 -22 -22 -37 -41 -21 -25 -27 -41 -23 -63 5 -32 55
-115 87 -144 11 -10 25 -28 31 -39 5 -11 -12 4 -39 33 -26 29 -54 52 -61 52
-15 0 -32 41 -32 78 l-1 27 -19 -24 c-24 -28 -25 -71 -4 -126 27 -70 27 -80 1
-111 -20 -23 -24 -38 -21 -74 2 -25 -3 -65 -10 -90 -17 -59 -12 -111 13 -131
18 -14 18 -18 4 -31 -8 -9 -21 -40 -28 -69 -16 -72 -17 -268 -1 -322 12 -42
12 -61 3 -148 -3 -26 -2 -64 3 -85 5 -22 11 -66 15 -99 7 -74 13 -94 36 -123
13 -17 16 -30 10 -45 -14 -35 -13 -37 4 -63 8 -13 15 -39 14 -57 0 -17 4 -48
10 -67 6 -19 11 -52 11 -73 0 -61 29 -174 53 -204 16 -20 22 -43 23 -83 2 -56
29 -149 82 -276 40 -95 47 -131 32 -160 -16 -29 5 -90 58 -167 28 -41 38 -65
43 -114 5 -50 12 -69 38 -98 17 -20 37 -50 45 -68 7 -18 31 -54 53 -80 22 -26
62 -86 88 -133 26 -47 66 -109 89 -137 26 -34 41 -63 42 -84 0 -17 7 -38 15
-47 21 -23 32 -37 59 -76 13 -19 42 -56 64 -81 23 -25 54 -72 70 -102 16 -31
44 -70 63 -87 18 -17 33 -39 33 -50 0 -19 47 -89 112 -166 24 -29 35 -50 31
-63 -6 -23 -137 -149 -198 -190 -42 -29 -164 -139 -253 -230 -30 -30 -72 -67
-95 -81 -23 -15 -55 -39 -70 -53 -15 -15 -37 -31 -48 -37 -11 -6 -24 -22 -29
-34 -6 -17 -29 -31 -82 -52 -44 -17 -90 -43 -118 -69 -25 -22 -70 -62 -100
-87 -30 -26 -73 -63 -95 -83 -42 -38 -94 -65 -126 -65 -10 0 -33 -13 -50 -28
-45 -40 -35 -76 34 -122 29 -19 55 -36 59 -38 3 -2 19 11 35 28 27 29 33 31
64 22 48 -13 59 -6 59 37 l0 37 72 -3 c97 -3 133 17 123 67 -5 24 -4 25 41 22
35 -3 53 1 74 17 16 11 53 31 82 44 30 13 70 37 89 53 18 16 50 42 69 56 19
15 62 52 95 82 33 31 65 56 71 56 6 0 29 12 50 27 21 14 58 32 82 39 24 7 60
27 80 44 20 16 42 30 48 30 6 0 26 19 44 42 34 45 114 113 146 125 27 9 61 48
84 94 17 32 26 39 51 39 34 0 79 20 99 45 8 9 35 28 62 41 26 13 83 52 126 87
43 34 94 75 114 90 20 15 44 44 53 63 9 19 22 37 28 39 7 2 34 9 60 15 39 10
55 22 85 61 20 26 41 48 45 49 12 0 46 40 57 67 10 24 47 52 78 58 86 16 232
155 232 222 0 27 39 59 84 67 23 5 44 18 63 43 51 65 167 177 218 210 100 64
193 139 209 168 9 17 32 41 51 55 18 14 43 41 54 61 11 19 30 44 42 55 12 10
36 42 54 71 19 28 54 72 78 98 25 26 48 57 52 68 8 27 113 115 190 158 33 18
65 45 74 62 9 16 34 46 55 66 22 20 51 49 65 65 31 35 132 135 192 192 24 23
65 63 90 90 26 27 58 60 73 73 18 16 26 33 26 56 0 24 7 37 25 49 14 9 33 31
42 49 8 18 34 48 57 67 23 19 64 62 92 94 27 33 81 94 121 138 39 43 74 91 78
106 3 16 24 49 46 73 23 24 58 78 79 121 21 42 45 87 54 99 20 29 20 80 1 145
-35 118 -265 304 -375 304 -9 0 -46 10 -81 21 -35 12 -80 24 -99 27 -32 4
-190 11 -267 12 -20 0 -33 5 -33 13 0 9 -40 12 -168 12 -216 1 -474 15 -542
30 -14 3 -47 8 -75 10 -124 12 -160 18 -184 27 -14 5 -48 12 -76 15 -27 2 -73
11 -102 19 -28 8 -71 14 -96 14 -24 0 -64 7 -87 15 -23 8 -55 15 -71 15 -16 0
-52 9 -81 20 -29 11 -69 23 -88 26 -56 8 -93 25 -130 60 -22 20 -50 35 -75 39
-22 3 -54 14 -72 23 -39 21 -134 99 -157 130 -25 33 -22 84 9 148 22 44 41
125 42 172 0 4 15 15 33 24 40 20 50 34 50 70 0 15 23 70 50 123 28 53 50 101
50 108 0 7 15 50 34 97 19 47 41 105 50 130 9 25 27 58 41 74 30 35 59 122 75
231 7 44 21 105 32 135 64 175 62 164 46 238 -9 37 -17 74 -19 82 -3 9 2 14
11 11 37 -9 44 -5 56 37 15 51 10 284 -7 328 -6 16 -15 55 -19 88 -6 37 -19
73 -37 100 -73 108 -316 305 -405 330 -29 8 -73 20 -98 28 -47 14 -56 15 -80
5 -8 -3 -44 -8 -80 -11 -36 -3 -75 -8 -87 -12 -19 -5 -23 -2 -23 14 0 20 -32
47 -42 37z m247 -396 c39 -10 87 -20 107 -24 92 -15 172 -167 170 -325 -2
-237 -5 -290 -13 -290 -5 0 -21 7 -34 16 -25 16 -25 16 -25 -12 -2 -239 -12
-289 -86 -421 -19 -34 -34 -75 -34 -91 0 -18 -11 -43 -26 -61 -14 -17 -28 -47
-31 -68 -4 -21 -28 -72 -54 -114 -26 -41 -61 -104 -79 -140 -18 -35 -43 -79
-57 -97 -35 -47 -141 -275 -154 -330 -6 -26 -12 -63 -15 -82 -2 -19 -10 -50
-16 -68 -10 -26 -10 -37 0 -50 20 -28 59 -113 82 -179 17 -48 30 -68 56 -83
18 -12 49 -43 68 -69 29 -39 53 -57 121 -90 47 -23 85 -46 85 -51 0 -5 14 -11
30 -15 17 -4 45 -20 63 -36 18 -16 43 -32 57 -35 29 -7 85 -25 195 -66 114
-42 280 -88 350 -96 33 -4 65 -11 70 -14 6 -4 47 -9 90 -13 90 -7 125 -12 175
-25 19 -6 58 -10 86 -10 43 0 138 -13 239 -34 11 -2 47 -7 80 -10 65 -7 195
-24 247 -32 32 -5 158 -9 498 -18 177 -4 237 -18 287 -65 42 -42 40 -46 -141
-245 -39 -43 -106 -115 -148 -160 -83 -87 -142 -162 -152 -192 -3 -11 -23 -38
-45 -62 -21 -23 -48 -61 -59 -85 -28 -58 -48 -78 -115 -109 -51 -25 -63 -37
-107 -105 -68 -108 -95 -139 -149 -171 -25 -14 -53 -34 -61 -43 -8 -9 -35 -31
-60 -50 -99 -75 -131 -107 -292 -295 -118 -138 -142 -160 -178 -168 -40 -7
-105 -70 -96 -92 4 -11 -15 -38 -58 -82 -35 -37 -76 -85 -92 -108 -52 -72 -78
-99 -119 -119 -108 -54 -285 -202 -285 -238 0 -11 -17 -25 -46 -37 -50 -22
-173 -128 -219 -189 -17 -22 -47 -50 -68 -63 -21 -12 -47 -39 -58 -59 -14 -28
-29 -41 -64 -53 -25 -8 -78 -38 -117 -67 -62 -45 -70 -48 -65 -28 5 17 -3 38
-30 76 -35 51 -37 60 -18 118 4 14 -2 32 -19 55 -38 52 -48 80 -48 135 -1 28
-7 62 -14 76 -7 15 -11 28 -9 30 16 17 9 71 -16 121 -16 32 -29 72 -29 91 0
19 -12 52 -29 80 -27 41 -34 68 -55 190 -3 16 -10 35 -16 42 -6 8 -13 47 -15
87 -2 51 -11 93 -30 138 -41 96 -46 127 -30 174 13 37 13 42 -4 61 -26 27 -37
76 -40 162 -2 77 -5 87 -44 198 -26 72 -32 101 -42 215 -4 36 -16 92 -27 125
-12 33 -21 68 -20 78 0 9 -4 17 -10 17 -6 0 -8 10 -4 23 3 14 -2 38 -13 58
-14 26 -16 40 -9 53 11 20 9 33 -21 151 -11 44 -20 110 -21 147 0 58 -4 71
-27 99 -25 30 -28 40 -28 118 -1 47 -6 104 -12 126 -6 22 -17 69 -23 105 -6
36 -20 79 -31 96 -10 17 -19 45 -19 62 0 23 -6 32 -22 38 -20 6 -21 7 -2 17
36 20 36 24 -10 172 -8 28 -17 61 -20 75 -11 57 -26 137 -31 170 -3 19 -11 55
-16 79 -5 25 -12 74 -15 110 -3 41 -16 91 -34 131 -19 43 -30 86 -31 123 -1
34 -12 82 -26 115 -14 31 -27 87 -30 124 -4 53 -11 72 -29 89 -30 28 -30 42
-2 61 19 12 23 28 28 90 5 53 14 90 33 125 14 29 24 62 23 78 -3 20 5 36 25
58 16 16 29 37 29 45 0 8 9 30 21 49 12 18 19 40 16 47 -3 7 12 32 32 55 21
23 44 61 51 84 31 97 123 268 179 329 120 134 155 180 142 188 -8 5 0 10 23
14 19 4 48 17 63 30 36 29 89 59 133 76 19 8 41 22 48 31 17 25 38 27 212 26
109 -1 176 -6 225 -18z m494 -626 c41 -28 19 -87 -37 -99 -43 -9 -57 -19 -62
-49 -6 -35 -26 -43 -35 -15 -10 30 1 63 31 99 24 29 27 30 47 16 12 -8 25 -15
29 -15 17 0 7 31 -19 54 -26 24 -26 25 -8 53 l19 28 7 -29 c4 -15 17 -35 28
-43z m-1911 -183 c-7 -10 -14 -17 -17 -15 -4 4 18 35 25 35 2 0 -1 -9 -8 -20z
m146 -271 c8 -9 3 -10 -23 -5 -18 3 -41 6 -50 7 -12 0 -11 2 4 8 24 10 55 6
69 -10z m-174 -1006 c0 -13 13 -52 30 -86 26 -54 30 -77 35 -182 10 -205 14
-239 34 -265 26 -36 30 -53 36 -164 3 -54 10 -107 16 -119 6 -11 13 -48 15
-81 6 -84 10 -93 33 -72 18 16 19 15 25 -16 3 -18 6 -60 6 -93 0 -85 6 -134
23 -180 7 -22 14 -66 15 -98 1 -41 8 -73 25 -105 19 -37 22 -53 15 -77 -14
-49 -6 -117 19 -167 13 -26 23 -56 23 -67 0 -11 4 -23 10 -26 5 -3 9 -23 9
-43 -1 -20 3 -57 9 -82 5 -25 10 -81 11 -125 0 -48 7 -92 16 -111 29 -61 64
-200 66 -262 2 -46 8 -71 26 -97 19 -28 22 -43 17 -70 -5 -26 0 -45 17 -77 18
-35 23 -61 24 -133 2 -79 8 -108 54 -243 29 -84 57 -179 62 -210 6 -31 22 -95
35 -141 13 -46 24 -87 24 -92 0 -16 -37 -9 -64 12 -35 27 -49 56 -48 96 2 50
-37 63 -80 25 -19 -16 -20 -15 -22 33 -3 53 -17 125 -24 126 -4 1 -20 2 -37 4
-16 1 -45 5 -62 9 -27 6 -33 5 -33 -9 0 -12 -6 -15 -22 -10 -29 9 -68 44 -68
61 0 7 -25 37 -56 66 -65 62 -84 94 -84 142 0 24 -8 42 -24 58 -28 27 -41 64
-27 72 6 4 17 -6 25 -21 7 -16 23 -37 35 -47 13 -12 21 -31 21 -53 0 -39 43
-91 134 -161 56 -43 60 -45 84 -31 47 27 47 38 -1 144 -24 55 -50 124 -57 153
-7 29 -27 75 -46 102 -19 27 -34 53 -34 57 0 5 -18 35 -40 68 -45 67 -80 152
-80 193 0 16 -4 32 -10 38 -5 5 -25 42 -45 82 -30 62 -33 75 -23 92 7 11 16
20 20 20 14 0 8 27 -8 41 -31 25 -56 102 -61 184 -3 55 -10 88 -23 106 -12 17
-15 30 -9 41 7 12 2 25 -17 48 -25 29 -26 33 -14 76 10 34 10 48 1 57 -6 6
-11 25 -11 41 0 17 -9 46 -20 64 -23 38 -24 43 -8 39 18 -3 22 41 8 88 -7 22
-12 66 -11 98 l1 57 -52 -6 c-57 -7 -58 -2 -6 24 52 27 57 58 20 131 -29 56
-30 61 -12 61 27 0 38 25 45 110 7 88 12 109 32 132 8 9 12 25 9 36 -10 29
-41 62 -60 62 -20 0 -21 14 -2 29 14 12 20 37 31 139 4 29 13 70 22 90 30 73
27 89 -22 115 l-30 16 27 1 c22 0 29 6 34 28 10 46 13 52 31 59 29 11 32 23
18 72 -21 70 -27 141 -14 157 16 19 39 0 39 -33z m3301 -2220 c-8 -15 -10 -15
-11 -2 0 17 10 32 18 25 2 -3 -1 -13 -7 -23z m-661 -757 c0 -3 -15 -14 -32
-26 l-33 -22 30 26 c31 27 35 29 35 22z m-1869 -614 c-17 -32 -38 -45 -44 -28
-7 18 17 46 39 46 11 0 12 -4 5 -18z m979 -180 c0 -11 -41 -34 -48 -27 -4 4 2
13 12 21 22 15 36 18 36 6z"/>
<path d="M10971 6041 c-17 -17 -20 -26 -12 -34 15 -15 44 14 39 39 -3 17 -5
17 -27 -5z"/>
<path d="M6004 6145 c-4 -9 -2 -21 3 -26 7 -7 12 -3 16 10 6 25 -11 39 -19 16z"/>
<path d="M5467 4544 c-9 -10 2 -24 19 -24 8 0 14 7 14 15 0 15 -21 21 -33 9z"/>
<path d="M4069 3892 c-38 -39 -56 -80 -45 -107 8 -22 96 -57 126 -52 15 3 34
-2 49 -14 31 -25 37 -24 57 6 15 23 14 26 -20 71 -36 47 -36 47 -16 66 42 39
17 68 -58 68 -50 0 -58 -3 -93 -38z"/>
<path d="M4023 3709 c-27 -14 -31 -38 -32 -175 0 -92 4 -116 20 -142 21 -36
49 -42 49 -13 0 32 19 35 46 6 13 -14 24 -29 24 -33 0 -4 -15 -17 -34 -30 -19
-13 -46 -40 -60 -60 -25 -37 -25 -38 -11 -109 8 -40 18 -80 24 -90 5 -10 6
-25 1 -33 -18 -33 52 -230 88 -249 50 -27 152 -3 152 34 0 8 11 49 25 91 14
42 25 85 25 94 0 26 -78 86 -93 71 -23 -23 -25 -10 -5 42 29 75 22 166 -15
205 -25 26 -26 32 -18 74 4 26 5 52 1 59 -4 6 -2 27 6 45 16 39 18 80 4 89 -5
3 -28 -4 -50 -15 -55 -28 -82 -23 -91 15 -4 17 -10 37 -13 46 -6 14 -1 15 36
10 57 -9 78 -3 78 20 0 40 -107 73 -157 48z m97 -659 c0 -5 -10 -10 -22 -9
-22 0 -22 1 -3 9 11 5 21 9 23 9 1 1 2 -3 2 -9z m85 -190 c-11 -5 -29 -8 -40
-8 -16 0 -15 2 5 8 34 11 60 11 35 0z"/>
<path d="M4195 3668 c10 -34 23 -44 31 -25 6 18 -11 47 -28 47 -5 0 -6 -10 -3
-22z"/>
<path d="M3068 3503 c-20 -5 -24 -28 -7 -39 15 -9 46 23 34 34 -6 5 -18 7 -27
5z"/>
<path d="M3168 3367 c-2 -7 -3 -80 -2 -162 1 -169 9 -201 61 -225 18 -8 33
-17 33 -20 0 -3 -14 -13 -30 -22 -41 -23 -46 -42 -21 -74 19 -25 20 -29 6 -44
-16 -18 -17 -54 -2 -77 4 -7 12 -55 16 -106 9 -104 12 -114 47 -127 20 -8 23
-14 18 -38 -4 -17 -1 -32 5 -36 7 -5 9 -22 5 -46 -4 -26 -1 -49 10 -71 9 -18
16 -38 16 -44 0 -7 18 -70 41 -139 34 -109 46 -133 80 -167 39 -39 40 -42 24
-59 -16 -18 -15 -21 14 -57 17 -21 33 -54 37 -73 7 -37 35 -92 65 -125 10 -11
21 -35 24 -54 3 -19 26 -61 50 -94 25 -32 45 -64 45 -70 0 -7 8 -22 18 -34 15
-19 41 -27 115 -32 5 -1 6 -5 2 -10 -9 -15 32 -23 55 -11 12 6 25 22 30 36 6
16 27 32 56 45 l47 19 74 -77 c72 -75 75 -77 84 -55 9 24 7 51 -6 85 -4 9 -3
17 2 17 13 0 33 -45 33 -73 0 -37 15 -50 46 -43 15 4 33 14 39 23 7 9 36 25
65 37 48 19 82 48 70 59 -3 3 -41 7 -85 11 -127 9 -135 11 -245 73 -19 11 -56
25 -82 32 -34 10 -48 19 -48 31 0 19 -30 50 -48 50 -9 0 -9 5 0 19 10 17 7 25
-23 58 -52 58 -78 105 -89 164 -6 29 -21 70 -35 89 -14 20 -25 43 -25 52 0 9
-13 29 -28 46 -21 23 -26 35 -20 51 14 40 0 54 -51 47 -46 -6 -46 -6 -21 11
38 26 40 34 19 74 -10 21 -19 48 -19 59 0 32 -20 62 -36 56 -11 -4 -12 -2 -5
12 15 29 1 141 -20 155 -10 7 -20 25 -23 39 -7 39 -33 84 -62 107 l-26 21 26
31 c24 29 26 37 21 91 -8 76 -26 126 -66 184 l-31 46 22 23 c42 45 55 126 36
227 -7 39 -12 44 -48 53 -18 4 -37 9 -43 10 -29 8 -111 22 -172 29 -27 4 -42
1 -45 -7z m82 -293 c0 -8 -4 -12 -10 -9 -5 3 -10 13 -10 21 0 8 5 12 10 9 6
-3 10 -13 10 -21z"/>
<path d="M4428 2654 c-3 -2 -42 -6 -87 -8 -134 -8 -141 -17 -83 -96 46 -62 67
-65 119 -15 26 25 42 33 57 29 28 -7 76 12 76 29 0 24 -69 75 -82 61z"/>
<path d="M4405 2509 c-50 -15 -67 -35 -72 -82 -4 -36 -2 -45 13 -51 14 -5 25
1 44 23 23 27 32 31 99 36 82 6 91 10 91 30 0 36 -109 63 -175 44z"/>
<path d="M4730 2220 c0 -11 5 -20 10 -20 6 0 10 9 10 20 0 11 -4 20 -10 20 -5
0 -10 -9 -10 -20z"/>
<path d="M5710 1720 c0 -5 7 -10 15 -10 8 0 15 5 15 10 0 6 -7 10 -15 10 -8 0
-15 -4 -15 -10z"/>
<path d="M4362 1503 c4 -21 54 -31 71 -14 14 14 10 17 -36 25 -34 6 -38 5 -35
-11z"/>
<path d="M4505 1513 c-45 -9 -49 -12 -33 -31 7 -9 20 -29 28 -45 19 -39 35
-28 36 27 1 51 -1 54 -31 49z"/>
<path d="M12516 1471 c-14 -15 -15 -24 -6 -40 23 -43 80 -8 65 39 -8 25 -37
26 -59 1z"/>
<path d="M3989 1418 c-11 -38 2 -58 26 -38 16 13 9 40 -11 40 -8 0 -14 -1 -15
-2z"/>
<path d="M4295 1240 c-3 -5 1 -10 9 -10 8 0 18 5 21 10 3 6 -1 10 -9 10 -8 0
-18 -4 -21 -10z"/>
</g>
</svg>
